<?xml version="1.0" encoding="UTF-8" standalone="no"?>
<!-- Created with Inkscape (http://www.inkscape.org/) -->

<svg
   xmlns:dc="http://purl.org/dc/elements/1.1/"
   xmlns:cc="http://creativecommons.org/ns#"
   xmlns:rdf="http://www.w3.org/1999/02/22-rdf-syntax-ns#"
   xmlns:svg="http://www.w3.org/2000/svg"
   xmlns="http://www.w3.org/2000/svg"
   xmlns:sodipodi="http://sodipodi.sourceforge.net/DTD/sodipodi-0.dtd"
   xmlns:inkscape="http://www.inkscape.org/namespaces/inkscape"
   width="241.97942"
   height="241.97942"
   viewBox="0 0 793.99497 1122.9357"
   version="1.1"
   id="svg8"
   inkscape:version="0.92.5 (2060ec1f9f, 2020-04-08)"
   sodipodi:docname="barcamp-logo_minimal.svg">
  <metadata
     id="metadata893">
    <rdf:RDF>
      <cc:Work
         rdf:about="">
        <dc:format>image/svg+xml</dc:format>
        <dc:type
           rdf:resource="http://purl.org/dc/dcmitype/StillImage" />
        <dc:title></dc:title>
      </cc:Work>
    </rdf:RDF>
  </metadata>
  <defs
     id="defs891" />
  <sodipodi:namedview
     pagecolor="#ffffff"
     bordercolor="#666666"
     borderopacity="1"
     objecttolerance="10"
     gridtolerance="10"
     guidetolerance="10"
     inkscape:pageopacity="0"
     inkscape:pageshadow="2"
     inkscape:window-width="1920"
     inkscape:window-height="1136"
     id="namedview889"
     showgrid="false"
     fit-margin-top="0"
     fit-margin-left="0"
     fit-margin-right="0"
     fit-margin-bottom="0"
     inkscape:zoom="1.610668"
     inkscape:cx="176.50852"
     inkscape:cy="166.53856"
     inkscape:window-x="0"
     inkscape:window-y="27"
     inkscape:window-maximized="1"
     inkscape:current-layer="layer1" />
  <g
     inkscape:label="Layer 1"
     inkscape:groupmode="layer"
     id="layer1"
     transform="translate(-873.69296,-1090.9507)">
    <path
       id="path845"
       style="fill:#0a0000;fill-opacity:1;stroke-width:4.640625"
       d="m 1263.9671,1957.584 55.6875,-1.4081 31.6299,-10.8476 31.6298,-10.8476 24.0577,-14.3451 24.0576,-14.345 1.3798,-11.8274 1.3799,-11.8275 -9.6337,-8.7183 -9.6336,-8.7183 -33.5118,17.2157 -33.5118,17.2158 -25.5235,6.7716 -25.5234,6.7717 -39.6305,0.055 -39.6304,0.055 -27.6586,-7.19 -27.6586,-7.19 -29.1636,-16.0131 -29.1637,-16.0132 h -8.1934 -8.1934 l -5.5687,5.5688 -5.5688,5.5687 v 10.4373 10.4373 l 15.0821,11.3077 15.082,11.3076 19.393,9.7375 19.3931,9.7374 31.6538,9.256 31.6538,9.2559 55.6875,-1.408 z m 4.6407,106.3877 60.3281,-1.7919 34.8047,-9.9501 34.8047,-9.95 37.6311,-18.5065 37.6312,-18.5065 10.3552,-11.0226 10.3553,-11.0227 -1.613,-8.3756 -1.613,-8.3755 -12.1466,-6.8177 -12.1466,-6.8178 -23.1113,14.8305 -23.1113,14.8305 -27.3905,11.1298 -27.3905,11.1297 -35.7364,7.3816 -35.7364,7.3815 h -36.9124 -36.9124 l -34.0528,-6.5156 -34.0528,-6.5158 -30.9706,-12.3987 -30.9706,-12.3987 -21.3976,-13.5699 -21.3976,-13.57 h -10.5122 -10.5123 l -5.5688,5.5687 -5.5687,5.5688 v 9.9542 9.9542 l 8.1211,7.2217 8.1211,7.2217 30.164,16.2426 30.1641,16.2426 27.8438,9.863 27.8437,9.8631 30.1641,6.7567 30.164,6.7566 z m 4.6406,101.7803 60.3281,-1.7846 46.4063,-11.9146 46.4062,-11.9145 52.3378,-25.636 52.3377,-25.6359 9.1506,-9.1506 9.1505,-9.1505 v -9.1743 -9.1742 l -10.6875,-7.0027 -10.6875,-7.0027 -58.453,29.6021 -58.453,29.6021 -43.3947,10.5911 -43.3946,10.5911 -67.2891,0.019 -67.2891,0.019 -41.7335,-10.2948 -41.7335,-10.2948 -46.4383,-22.8902 -46.4384,-22.8902 -16.03964,-9.3435 -16.03971,-9.3435 -9.4838,6.297 -9.4838,6.297 v 13.3559 13.3558 l 25.5234,17.259 25.52355,17.259 39.4453,16.6984 39.4453,16.6985 32.8777,9.0394 32.8776,9.0395 27.4505,4.3286 27.4505,4.3285 60.3281,-1.7845 z m 4.6406,46.3112 -69.6094,1.8232 -37.125,-4.4321 -37.125,-4.432 -44.2892,-11.0029 -44.2892,-11.0028 -36.9217,-14.7471 -36.92175,-14.7471 -34.8047,-21.5124 -34.8047,-21.5125 -28.8281,-27.4937 -28.828,-27.4938 -18.5176,-28.4372 -18.5177,-28.4372 -11.7012,-31.1084 -11.70121,-31.1084 -4.9994,-41.1183 -4.9995,-41.1183 5.0375,-41.4686 5.0376,-41.4686 9.31781,-34.4098 9.3178,-34.4097 19.5269,-46.8012 19.527,-46.8012 3.12,37.6109 3.1201,37.6109 5.4714,20.3192 5.4714,20.3192 10.9115,21.5329 10.9115,21.533 21.1195,18.5901 21.1194,18.59 19.373,4.9174 19.3729,4.9174 15.5635,-6.5029 15.56341,-6.5028 9.03074,-19.8973 9.0307,-19.8974 0.1021,-23.8799 0.102,-23.88 -14.24554,-52.6903 -14.24551,-52.6904 -2.5732,-60.6378 -2.5732,-60.6378 7.4723,-25.7036 7.47221,-25.7035 17.73534,-19.9852 17.7353,-19.9852 8.6807,32.0689 8.6806,32.069 23.0521,24.3741 23.0519,24.3741 18.6004,5.0086 18.6002,5.0085 20.7925,-5.2356 20.7925,-5.2356 17.228,-8.789 17.2279,-8.789 23.4216,-25.6271 23.4217,-25.6271 7.4533,-21.8742 7.4533,-21.8742 v -15.1134 -15.1134 l -4.9146,-13.0639 -4.9146,-13.0638 -36.2271,-34.8047 -36.2271,-34.8047 -8.5886,-16.2422 -8.5887,-16.2421 -0.1564,-30.3446 -0.1564,-30.3446 16.0858,-26.5414 16.0857,-26.5414 16.821,-16.4252 16.821,-16.4253 -4.2154,29.2253 -4.2154,29.2253 2.3201,24.5821 2.3203,24.5821 11.4592,19.5537 11.4592,19.5537 20.1777,11.384 20.1777,11.3839 63.4839,2.4997 63.4838,2.4997 13.0865,9.5995 13.0864,9.5995 8.3578,15.9123 8.3579,15.9123 -2.7721,23.2031 -2.7721,23.2031 -17.1873,37.0191 -17.1873,37.019 -23.2968,32.5904 -23.2968,32.5903 -9.9232,16.2421 -9.9232,16.2422 -5.244,19.7227 -5.244,19.7226 5.2993,19.6801 5.2993,19.6801 9.5415,13.3999 9.5415,13.3998 25.2332,11.5521 25.2332,11.5522 40.1556,-2.0203 40.1557,-2.0204 16.2421,-8.3368 16.2422,-8.3368 13.1761,-12.232 13.176,-12.2319 6.6673,-12.7646 6.6673,-12.7647 4.6116,-24.3168 4.6116,-24.317 -4.6898,-32.5278 -4.6898,-32.5278 -2.904,-10.4414 -2.904,-10.4415 h 5.6785 5.6786 l 28.5072,13.6213 28.5072,13.6212 19.8827,17.0415 19.8827,17.0414 9.1212,17.879 9.1212,17.879 v 25.8547 25.8547 l -9.5358,28.3067 -9.5359,28.3068 -17.7693,35.3555 -17.7693,35.3554 -9.8199,31.8131 -9.8198,31.813 v 15.4513 15.4512 l 4.9359,13.0638 4.9358,13.0638 12.1746,12.7618 12.1745,12.7617 h 11.3455 11.3456 l 14.7314,-15.6198 14.7313,-15.6197 19.4118,-32.675 19.4118,-32.6748 5.4311,-13.1937 5.4312,-13.1936 3.3504,13.9219 3.3504,13.9219 0.549,49.1444 0.5491,49.1443 -8.9776,35.1021 -8.9776,35.1021 -12.5295,24.8082 -12.5295,24.8082 -13.7897,20.1139 -13.7897,20.1139 -24.8069,24.8069 -24.8068,24.8069 -26.9081,18.258 -26.9081,18.258 -34.8047,17.5378 -34.8046,17.5378 -39.1593,13.2573 -39.1594,13.2573 -49.0125,9.508 -49.0126,9.508 -69.6094,1.8232 z"
       inkscape:connector-curvature="0" />
  </g>
</svg>
