<?xml version="1.0" encoding="UTF-8" standalone="no"?>
<!-- Created with Inkscape (http://www.inkscape.org/) -->

<svg
   xmlns:dc="http://purl.org/dc/elements/1.1/"
   xmlns:cc="http://creativecommons.org/ns#"
   xmlns:rdf="http://www.w3.org/1999/02/22-rdf-syntax-ns#"
   xmlns:svg="http://www.w3.org/2000/svg"
   xmlns="http://www.w3.org/2000/svg"
   xmlns:sodipodi="http://sodipodi.sourceforge.net/DTD/sodipodi-0.dtd"
   xmlns:inkscape="http://www.inkscape.org/namespaces/inkscape"
   width="374.10779"
   height="414.42978"
   viewBox="0 0 1227.5412 1923.2132"
   version="1.1"
   id="svg8"
   inkscape:version="0.92.5 (2060ec1f9f, 2020-04-08)"
   sodipodi:docname="barcamp-logo.svg">
  <g
     inkscape:label="Layer 1"
     inkscape:groupmode="layer"
     id="layer1"
     transform="translate(-611.36973,-908.34976)">
    <path
       style="fill:#000000;stroke-width:4.640625"
       d="m 1222.8723,2830.8974 -18.5625,-0.6602 -13.9219,-1.8465 -13.9219,-1.8465 -25.5234,-7.1197 -25.5235,-7.1197 -331.80475,-191.0455 -331.8046,-191.0456 -28.2308,-27.8437 -28.2308,-27.8438 -19.3879,-39.4453 -19.3879,-39.4453 -4.7395,-26.2289 -4.7395,-26.2289 1.3705,-391.4273 1.3704,-391.4273 10.7656,-28.8776 10.7657,-28.8776 17.3443,-26.8099 17.3443,-26.8099 20.7768,-20.1953 20.7768,-20.1952 329.265,-190.3606 329.26515,-190.36064 25.5234,-9.7434 25.5235,-9.7433 60.3281,0.01 60.3281,0.01 24.0464,9.7372 24.0464,9.7373 328.6411,189.31234 328.6411,189.3123 25.9245,26.0918 25.9246,26.0918 16.6327,29.9551 16.6327,29.9551 7.4284,25.8913 7.4284,25.8914 -1.2591,408.4465 -1.2591,408.4466 -21.939,44.1904 -21.939,44.1903 -24.6403,25.0372 -24.6404,25.0371 -327.7157,189.1163 -327.7159,189.1162 -20.1859,8.9292 -20.1859,8.9292 -30.1361,4.8893 -30.1361,4.8892 -18.5625,-0.6603 z m -242.50465,-222.8834 15.1139,-1.4565 1.3816,-29.0039 1.3816,-29.0039 h 19.97515 19.9751 l 15.7007,-10.5807 15.7007,-10.5807 6.0606,-11.4623 6.0605,-11.4623 -2.0562,-20.7322 -2.0562,-20.7323 -14.0288,-12.5347 -14.0287,-12.5347 -25.6689,-3.2071 -25.66895,-3.2071 -17.6062,4.1594 -17.6063,4.1594 -1.2769,78.5505 -1.2768,78.5505 2.4051,6.2676 2.4051,6.2676 z m 34.83665,-89.5272 -17.40245,3.252 v -28.3602 -28.3602 h 14.22705 14.2269 l 8.9762,4.8039 8.9762,4.8039 v 15.5107 15.5107 l -5.8008,4.7936 -5.8008,4.7936 z m 151.9805,90.391 h 16.2421 v -37.125 -37.125 h 29.9689 29.9689 l 1.3553,35.9648 1.3554,35.9649 h 16.2422 16.2422 l 1.2648,-84.6914 1.2649,-84.6914 h -18.6672 -18.6672 v 32.4844 32.4843 h -30.1641 -30.1641 v -32.4843 -32.4844 h -16.2421 -16.2422 v 85.8515 85.8516 z m 245.7098,-1.0168 51.2902,-1.3035 1.4541,-15.082 1.4542,-15.0821 h -37.419 -37.419 v -69.6093 -69.6094 h -18.5625 -18.5625 v 82.7578 82.7578 l 3.2371,3.2372 3.2372,3.2371 z m -186.8738,-300.6238 h 756.1071 l 11.422,-24.949 11.4221,-24.9491 -1.2374,-393.8673 -1.2374,-393.8674 -13.0294,-26.5331 -13.0294,-26.5332 -19.7406,-19.8731 -19.7406,-19.8731 -322.0397,-185.3424 -322.0398,-185.3425 -16.4402,-5.8796 -16.4402,-5.87974 -30.1641,-0.1778 -30.1641,-0.1778 -17.9952,4.9966 -17.9952,4.99654 -325.41105,187.6228 -325.4111,187.6228 -19.4616,20.9842 -19.4617,20.9843 -13.0227,26.5228 -13.0227,26.5229 v 392.1328 392.1328 l 11.0129,24.3633 11.0128,24.3633 z m 6.1327,-95.174 -69.6094,1.8232 -37.125,-4.4321 -37.125,-4.432 -44.2892,-11.0029 -44.28925,-11.0028 -36.9217,-14.7471 -36.9217,-14.7471 -34.8047,-21.5124 -34.8047,-21.5125 -28.8281,-27.4937 -28.828,-27.4938 -18.5176,-28.4372 -18.5177,-28.4372 -11.7012,-31.1084 -11.7012,-31.1084 -4.9994,-41.1183 -4.9995,-41.1183 5.0375,-41.4686 5.0376,-41.4686 9.3178,-34.4098 9.3178,-34.4097 19.5269,-46.8012 19.527,-46.8012 3.12,37.6109 3.1201,37.6109 5.4714,20.3192 5.4714,20.3192 10.9115,21.5329 10.9115,21.533 21.1195,18.5901 21.1194,18.59 19.373,4.9174 19.3729,4.9174 15.5635,-6.5029 15.5634,-6.5028 9.0307,-19.8973 9.0307,-19.8974 0.1021,-23.8799 0.102,-23.88 -14.2455,-52.6903 -14.2455,-52.6904 -2.5732,-60.6378 -2.5732,-60.6378 7.4723,-25.7036 7.4722,-25.7035 17.7353,-19.9852 17.7353,-19.9852 8.6807,32.0689 8.6806,32.069 23.05215,24.3741 23.0519,24.3741 18.6004,5.0086 18.6002,5.0085 20.7925,-5.2356 20.7925,-5.2356 17.228,-8.789 17.2279,-8.789 23.4216,-25.6271 23.4217,-25.6271 7.4533,-21.8742 7.4533,-21.8742 v -15.1134 -15.1134 l -4.9146,-13.0639 -4.9146,-13.0638 -36.2271,-34.8047 -36.2271,-34.8047 -8.5886,-16.2422 -8.5887,-16.2421 -0.1564,-30.3446 -0.1564,-30.3446 16.0858,-26.5414 16.0857,-26.5414 16.821,-16.4252 16.821,-16.4253 -4.2154,29.2253 -4.2154,29.2253 2.3201,24.5821 2.3203,24.5821 11.4592,19.5537 11.4592,19.5537 20.1777,11.384 20.1777,11.3839 63.4839,2.4997 63.4838,2.4997 13.0865,9.5995 13.0864,9.5995 8.3578,15.9123 8.3579,15.9123 -2.7721,23.2031 -2.7721,23.2031 -17.1873,37.0191 -17.1873,37.019 -23.2968,32.5904 -23.2968,32.5903 -9.9232,16.2421 -9.9232,16.2422 -5.244,19.7227 -5.244,19.7226 5.2993,19.6801 5.2993,19.6801 9.5415,13.3999 9.5415,13.3998 25.2332,11.5521 25.2332,11.5522 40.1556,-2.0203 40.1557,-2.0204 16.2421,-8.3368 16.2422,-8.3368 13.1761,-12.232 13.176,-12.2319 6.6673,-12.7646 6.6673,-12.7647 4.6116,-24.3168 4.6116,-24.317 -4.6898,-32.5278 -4.6898,-32.5278 -2.904,-10.4414 -2.904,-10.4415 h 5.6785 5.6786 l 28.5072,13.6213 28.5072,13.6212 19.8827,17.0415 19.8827,17.0414 9.1212,17.879 9.1212,17.879 v 25.8547 25.8547 l -9.5358,28.3067 -9.5359,28.3068 -17.7693,35.3555 -17.7693,35.3554 -9.8199,31.8131 -9.8198,31.813 v 15.4513 15.4512 l 4.9359,13.0638 4.9358,13.0638 12.1746,12.7618 12.1745,12.7617 h 11.3455 11.3456 l 14.7314,-15.6198 14.7313,-15.6197 19.4118,-32.675 19.4118,-32.6748 5.4311,-13.1937 5.4312,-13.1936 3.3504,13.9219 3.3504,13.9219 0.549,49.1444 0.5491,49.1443 -8.9776,35.1021 -8.9776,35.1021 -12.5295,24.8082 -12.5295,24.8082 -13.7897,20.1139 -13.7897,20.1139 -24.8069,24.8069 -24.8068,24.8069 -26.9081,18.258 -26.9081,18.258 -34.8047,17.5378 -34.8046,17.5378 -39.1593,13.2573 -39.1594,13.2573 -49.0125,9.508 -49.0126,9.508 -69.6094,1.8232 z m -4.6406,-46.3112 60.3281,-1.7846 46.4063,-11.9146 46.4062,-11.9145 52.3378,-25.636 52.3377,-25.6359 9.1506,-9.1506 9.1505,-9.1505 v -9.1743 -9.1742 l -10.6875,-7.0027 -10.6875,-7.0027 -58.453,29.6021 -58.453,29.6021 -43.3947,10.5911 -43.3946,10.5911 -67.2891,0.019 -67.2891,0.019 -41.7335,-10.2948 -41.7335,-10.2948 -46.4383,-22.8902 -46.43845,-22.8902 -16.0396,-9.3435 -16.0397,-9.3435 -9.4838,6.297 -9.4838,6.297 v 13.3559 13.3558 l 25.5234,17.259 25.5235,17.259 39.44535,16.6984 39.4453,16.6985 32.8777,9.0394 32.8776,9.0395 27.4505,4.3286 27.4505,4.3285 60.3281,-1.7845 z m -4.6406,-101.7803 60.3281,-1.7919 34.8047,-9.9501 34.8047,-9.95 37.6311,-18.5065 37.6312,-18.5065 10.3552,-11.0226 10.3553,-11.0227 -1.613,-8.3756 -1.613,-8.3755 -12.1466,-6.8177 -12.1466,-6.8178 -23.1113,14.8305 -23.1113,14.8305 -27.3905,11.1298 -27.3905,11.1297 -35.7364,7.3816 -35.7364,7.3815 h -36.9124 -36.9124 l -34.0528,-6.5156 -34.0528,-6.5158 -30.9706,-12.3987 -30.9706,-12.3987 -21.3976,-13.5699 -21.3976,-13.57 h -10.51225 -10.5123 l -5.5688,5.5687 -5.5687,5.5688 v 9.9542 9.9542 l 8.1211,7.2217 8.1211,7.2217 30.16405,16.2426 30.1641,16.2426 27.8438,9.863 27.8437,9.8631 30.1641,6.7567 30.164,6.7566 z m -4.6407,-106.3877 55.6875,-1.4081 31.6299,-10.8476 31.6298,-10.8476 24.0577,-14.3451 24.0576,-14.345 1.3798,-11.8274 1.3799,-11.8275 -9.6337,-8.7183 -9.6336,-8.7183 -33.5118,17.2157 -33.5118,17.2158 -25.5235,6.7716 -25.5234,6.7717 -39.6305,0.055 -39.6304,0.055 -27.6586,-7.19 -27.6586,-7.19 -29.1636,-16.0131 -29.1637,-16.0132 h -8.1934 -8.1934 l -5.5687,5.5688 -5.5688,5.5687 v 10.4373 10.4373 l 15.0821,11.3077 15.082,11.3076 19.393,9.7375 19.3931,9.7374 31.6538,9.256 31.6538,9.2559 55.6875,-1.408 z"
       id="path845"
       inkscape:connector-curvature="0" />
  </g>
</svg>
